HIERARCHY
ROOT Hips
{
  OFFSET 13.6774 106.653 -34.4427
  CHANNELS 6 Xposition Yposition Zposition Zrotation Xrotation Yrotation
  JOINT ToSpine
  {
    OFFSET -2.69724 7.43032 -0.144315
    CHANNELS 3 Zrotation Xrotation Yrotation
    JOINT Spine
    {
      OFFSET -0.0310711 10.7595 1.96963
      CHANNELS 3 Zrotation Xrotation Yrotation
      JOINT Spine1
      {
        OFFSET 19.9056 3.91189 0.764692
        CHANNELS 3 Zrotation Xrotation Yrotation
        JOINT Neck
        {
          OFFSET 25.9749 7.03908 -0.130764
          CHANNELS 3 Zrotation Xrotation Yrotation
          JOINT Head
          {
            OFFSET 9.52751 0.295786 -0.907742
            CHANNELS 3 Zrotation Xrotation Yrotation
            End Site
            {
              OFFSET 16.4037 0.713936 2.7358
            }
          }
        }
        JOINT LeftShoulder
        {
          OFFSET 17.7449 4.33886 11.7777
          CHANNELS 3 Zrotation Xrotation Yrotation
          JOINT LeftArm
          {
            OFFSET 0.911315 1.27913 9.80584
            CHANNELS 3 Zrotation Xrotation Yrotation
            JOINT LeftForeArm
            {
              OFFSET 28.6126 1.18197 -3.53199
              CHANNELS 3 Zrotation Xrotation Yrotation
              JOINT LeftHand
              {
                OFFSET 27.5088 0.0218783 0.327423
                CHANNELS 3 Zrotation Xrotation Yrotation
                End Site
                {
                  OFFSET 18.6038 -0.000155887 0.382096
                }
              }
            }
          }
        }
        JOINT RightShoulder
        {
          OFFSET 17.1009 2.89543 -12.2328
          CHANNELS 3 Zrotation Xrotation Yrotation
          JOINT RightArm
          {
            OFFSET 1.4228 0.178766 -10.211
            CHANNELS 3 Zrotation Xrotation Yrotation
            JOINT RightForeArm
            {
              OFFSET 28.733 1.87905 2.64907
              CHANNELS 3 Zrotation Xrotation Yrotation
              JOINT RightHand
              {
                OFFSET 27.4588 0.290562 -0.101845
                CHANNELS 3 Zrotation Xrotation Yrotation
                End Site
                {
                  OFFSET 17.8396 -0.255518 -0.000602873
                }
              }
            }
          }
        }
      }
    }
  }
  JOINT LeftUpLeg
  {
    OFFSET -5.61296 -2.22332 -10.2353
    CHANNELS 3 Zrotation Xrotation Yrotation
    JOINT LeftLeg
    {
      OFFSET 2.56703 -44.7417 -7.93097
      CHANNELS 3 Zrotation Xrotation Yrotation
      JOINT LeftFoot
      {
        OFFSET 3.16933 -46.5642 -3.96578
        CHANNELS 3 Zrotation Xrotation Yrotation
        JOINT LeftToeBase
        {
          OFFSET 0.346054 -6.02161 12.8035
          CHANNELS 3 Zrotation Xrotation Yrotation
          End Site
          {
            OFFSET 0.134235 -1.35082 5.13018
          }
        }
      }
    }
  }
  JOINT RightUpLeg
  {
    OFFSET -5.7928 -1.72406 10.6446
    CHANNELS 3 Zrotation Xrotation Yrotation
    JOINT RightLeg
    {
      OFFSET -2.57161 -44.7178 -7.85259
      CHANNELS 3 Zrotation Xrotation Yrotation
      JOINT RightFoot
      {
        OFFSET -3.10148 -46.5936 -4.03391
        CHANNELS 3 Zrotation Xrotation Yrotation
        JOINT RightToeBase
        {
          OFFSET -0.0828122 -6.13587 12.8035
          CHANNELS 3 Zrotation Xrotation Yrotation
          End Site
          {
            OFFSET -0.131328 -1.35082 5.13018
          }
        }
      }
    }
  }
}
MOTION
Frames: 15
Frame Time: 0.03333333333333333
0.0000 93.1000 0.0000 -65.4620 -17.3487 -170.3190 -71.0138 0.0427 87.9573 118.6002 74.8980 -29.6830 -7.1030 29.0152 1.1357 -148.5675 9.1523 -167.1406 -155.6060 45.8531 -173.0325 0.3440 -9.5091 -24.0934 -141.5853 27.7865 -68.2809 5.1097 -4.8861 -118.9003 -1.3126 0.4625 0.2876 -1.2441 7.8897 24.0186 -43.4090 -25.9429 157.9291 -6.6589 -1.8121 107.6015 -0.4846 0.5409 -0.6217 -34.8801 17.0006 99.1215 -4.1062 46.2747 -10.8063 -3.4062 -14.3298 -2.3655 1.3931 -5.6615 9.4847 -51.5879 -20.1319 75.3505 1.7178 22.0382 8.4149 2.1091 3.2270 -0.7615 2.0904 -17.8933 -10.2882 
0.0000 93.1000 0.0000 -65.6173 -20.2323 -168.7486 -71.0203 -0.0005 87.9611 117.4017 75.1915 -28.0279 -6.5310 29.0214 1.3362 -147.6012 10.5756 -167.1277 -154.8493 47.1836 -174.5879 0.3858 -10.4032 -25.6377 -138.8209 32.5755 -69.4043 7.9478 -6.0697 -119.8323 -0.5916 0.1017 -0.0572 -1.3041 8.1458 24.4257 -45.5530 -26.1373 158.1093 -4.5908 -1.2243 107.4774 -0.0343 0.2706 -0.2963 -34.4811 15.6699 98.6661 -3.9394 46.2005 -12.4040 -2.6705 -14.9348 -2.2421 0.2155 -4.7456 10.0556 -52.2181 -21.2738 75.1012 1.2404 24.0530 10.9202 1.1641 1.6753 -0.6465 2.3916 -19.9748 -13.1576 
0.0000 93.1000 0.0000 -66.0001 -22.3937 -169.0309 -71.0298 0.0427 87.9605 114.5234 75.3597 -25.9607 -5.6423 29.1780 1.3338 -147.7533 11.3296 -165.9143 -155.5835 48.1009 -173.5376 -0.0247 -11.3019 -25.5887 -139.1560 34.3991 -69.1690 8.2845 -5.7235 -118.1210 -0.1742 0.2162 -0.4433 -1.3803 7.9413 25.3200 -47.2710 -27.3129 157.8767 -2.4061 -1.2455 107.7281 -0.1593 0.4777 -0.4557 -33.9284 15.4320 98.0990 -4.6180 47.2453 -13.7915 -2.5995 -15.4018 -2.3463 -0.9802 -2.6277 10.5306 -52.9659 -21.4031 74.6357 0.1823 25.6562 12.3235 -0.2494 0.7331 -0.2408 3.1891 -21.1963 -16.4362 
0.0000 93.1000 0.0000 -65.9324 -23.7661 -169.1667 -71.0211 0.0107 87.9585 112.5852 75.5911 -23.0524 -5.4268 29.2742 1.2022 -145.2317 12.0918 -168.0890 -153.7070 48.5457 -175.2446 0.0407 -11.6610 -25.3866 -138.8800 35.2479 -69.5957 8.8449 -6.3405 -117.2557 -0.2100 -0.0048 -0.6584 -1.5623 7.7097 25.9508 -48.2682 -27.9623 157.0093 -1.6663 -0.8240 107.9499 -0.0811 0.3493 -0.0676 -34.1840 13.9637 97.6571 -4.3803 48.6630 -14.4536 -2.9602 -16.7433 -2.2430 -2.0767 -2.2231 12.0184 -54.4604 -21.2269 74.8891 0.1350 26.0454 10.3079 -0.6097 -1.3041 0.0774 1.9784 -19.8003 -15.8556 
0.0000 93.1000 0.0000 -66.2533 -25.1055 -169.1506 -71.0195 0.0005 87.9576 110.5176 75.2531 -20.6404 -4.7374 29.1171 1.9303 -145.4337 13.0345 -167.2833 -153.7481 48.6697 -174.3817 0.1745 -11.3622 -25.1004 -139.1486 34.8625 -70.4324 9.1506 -6.3315 -117.9784 0.0011 -0.1372 -1.0438 -1.5715 7.7323 25.9375 -48.5322 -29.2392 156.7963 -0.9736 -0.9790 107.3344 0.0744 0.2682 -0.0034 -34.8571 13.8380 98.0027 -4.7737 48.8797 -15.2590 -3.3860 -16.9617 -2.0607 -2.1105 -1.9494 11.9488 -54.5080 -20.9095 75.2654 -0.9435 27.0080 9.9636 -1.9786 -2.7227 0.2309 1.9335 -19.0473 -14.1600 
0.0000 93.1000 0.0000 -67.2009 -26.1235 -169.4101 -71.0134 0.0035 87.9720 107.9299 75.6861 -17.9740 -4.2330 29.0505 2.2204 -144.3560 13.1595 -166.2732 -153.9969 48.8330 -174.5006 0.1735 -11.0392 -24.7270 -139.4695 34.4303 -70.3010 9.1208 -6.1533 -118.3951 0.0396 -0.1627 -1.2172 -1.5519 7.7998 25.8735 -49.0657 -29.3884 156.5566 -0.8787 -0.6387 107.9144 -0.1236 0.2750 -0.1388 -34.6210 13.0968 97.0465 -5.2344 50.1209 -14.5736 -3.5206 -17.7412 -2.0501 -1.8723 -1.9849 10.5198 -54.4043 -20.6602 75.3138 -0.8289 27.9757 10.0598 -1.8283 -3.7178 0.3455 1.7489 -18.6799 -10.7489 
0.0000 93.1000 0.0000 -68.0205 -25.9522 -169.4568 -71.0252 -0.0264 88.0044 107.8380 75.8192 -16.3714 -3.6087 29.1428 1.9917 -143.7484 13.0310 -164.9221 -153.9073 48.8917 -173.8145 0.3603 -11.1999 -25.0581 -139.1724 33.4179 -70.2008 9.2180 -6.2334 -118.0501 -0.0922 -0.3774 -1.4790 -1.3720 7.7526 25.1703 -49.3419 -29.8505 156.3219 0.2987 0.0931 108.3889 -0.1200 0.0954 -0.0030 -34.5176 13.6845 96.3247 -5.2881 50.5177 -13.9730 -2.9150 -16.2752 -1.9674 -0.6909 -4.1456 10.2031 -54.6383 -21.0548 75.6438 -0.7341 29.2609 10.3960 -2.9952 -4.4007 0.4112 2.2113 -18.3505 -10.5563 
0.0000 93.1000 0.0000 -68.2571 -25.8450 -170.9254 -71.0351 -0.0633 88.0334 104.9994 76.0001 -12.8352 -3.0265 28.7850 1.3326 -142.6386 12.8775 -164.6634 -153.8108 49.0601 -175.2390 0.5898 -10.8540 -24.5880 -138.9893 32.5188 -70.4596 9.7458 -6.5452 -118.4050 -0.1963 -0.6250 -1.6728 -1.2515 7.8836 24.9396 -49.2638 -29.9925 156.6012 0.2879 0.1957 107.9294 0.0270 -0.1235 0.0020 -35.2084 13.8424 95.8046 -4.8822 49.2118 -13.0578 -2.7782 -14.6830 -1.6812 -0.0084 -4.4921 8.6146 -53.9096 -20.8235 76.9336 -1.7745 30.4540 9.3116 -2.6475 -5.8718 0.3337 1.8613 -16.9751 -8.6011 
0.0000 93.1000 0.0000 -67.5729 -25.6140 -170.5006 -71.0346 -0.0165 88.0373 100.2504 75.9642 -9.2083 -2.4155 28.8495 0.8950 -142.5934 12.2243 -164.1608 -154.7050 48.3170 -173.0411 0.3523 -11.0506 -24.2156 -140.0949 32.4711 -71.4353 10.6018 -6.9712 -118.0800 0.0617 -0.4579 -2.0249 -1.2296 8.2326 25.0868 -49.4171 -30.0834 156.3675 0.4968 0.2954 107.8513 -0.2630 0.1579 -0.1987 -35.2537 14.5602 95.9214 -4.6012 48.7417 -12.7483 -3.7719 -13.2606 -1.6770 1.3216 -5.2855 8.0468 -53.2669 -20.2339 78.1071 -1.9512 31.9299 7.6562 -1.8969 -7.4404 0.5151 1.9128 -16.4418 -7.6632 
0.0000 93.1000 0.0000 -69.3218 -25.6752 -169.9657 -71.0389 -0.0779 88.0358 98.7557 75.8314 -7.4575 -2.3521 28.8102 0.7521 -142.5646 11.9176 -164.3007 -154.8418 47.7025 -174.0942 0.7345 -10.9808 -23.7349 -140.7880 31.2228 -71.5503 11.4957 -7.2496 -117.3392 0.2513 -0.8204 -1.7190 -1.2014 8.2260 25.2447 -49.4986 -30.1318 157.2963 1.4602 0.0996 107.0027 0.1621 -0.1923 -0.1377 -36.1468 15.3152 94.4001 -4.4168 47.0810 -13.1146 -4.1034 -11.5773 -1.2663 2.6886 -9.1110 6.0486 -53.1543 -19.1336 78.1909 -1.4318 32.7615 7.3179 -3.9714 -7.8260 0.6493 2.6994 -19.2882 -10.0927 
0.0000 93.1000 0.0000 -68.8264 -25.1808 -171.0954 -71.0462 -0.1018 88.0438 98.2152 75.1691 -7.0475 -2.1399 28.4466 0.3179 -142.3568 11.7534 -164.3864 -154.6078 47.6128 -175.4327 0.7970 -10.9011 -23.0613 -142.0121 30.0915 -72.4397 12.6644 -7.0629 -115.4052 0.2070 -0.9515 -1.4941 -1.1140 8.4120 24.8201 -49.8620 -29.9945 158.1151 1.6902 0.0977 106.8948 0.2549 -0.3196 -0.2949 -37.7193 15.3497 94.5390 -3.3558 45.1541 -13.1299 -3.9524 -9.1315 -1.0503 3.1306 -10.3105 5.7278 -53.3091 -18.0240 78.8884 -1.2700 34.1991 5.3552 -3.7332 -9.7450 0.6708 2.4799 -17.9219 -9.2032 
0.0000 93.1000 0.0000 -69.0038 -25.4431 -170.9763 -71.0281 -0.0728 88.0411 97.8165 75.1753 -7.0857 -2.0237 27.9908 0.9867 -142.4880 11.7513 -164.8125 -154.4133 47.4315 -174.2321 0.6416 -10.8289 -22.8767 -142.4904 29.2861 -73.4994 12.9952 -6.9478 -113.8447 0.0861 -0.7785 -1.4827 -1.0775 7.9574 24.6655 -50.0558 -30.1146 158.4037 2.1000 0.4309 106.8501 -0.1078 -0.1027 -0.3122 -38.5675 16.1915 94.2124 -3.9549 43.1978 -11.5830 -4.6523 -6.6533 -0.9679 3.6851 -11.5782 4.8727 -53.6552 -16.2878 79.7562 -1.1288 34.6410 2.6556 -3.2863 -11.0805 0.8417 2.0749 -16.9909 -6.0220 
0.0000 93.1000 0.0000 -69.8047 -26.1522 -170.8247 -71.0327 -0.1167 88.0554 97.2454 74.9438 -6.4289 -2.2024 27.8740 1.1235 -142.5444 11.8136 -164.4111 -153.5673 47.6920 -173.1526 0.8571 -10.6393 -22.9800 -142.3809 29.4701 -74.3774 12.5762 -7.1157 -113.3611 -0.3068 -0.9948 -1.0571 -1.0526 7.7462 24.0324 -49.7299 -31.1635 159.1629 2.9637 1.0098 106.6638 0.1457 -0.3092 -0.0812 -39.3925 17.0533 93.7640 -2.2073 39.6660 -11.2412 -4.0125 -3.8216 -0.6399 3.0911 -10.1976 4.5930 -54.5852 -15.1732 78.5672 -1.2269 34.8203 0.9205 -2.8108 -11.7700 0.6625 1.7732 -15.3453 -3.8539 
0.0000 93.1000 0.0000 -69.8003 -26.5287 -170.0094 -71.0457 -0.0690 88.0591 95.8095 75.0801 -4.8616 -1.7589 27.8218 0.4757 -142.6898 11.8247 -163.7264 -154.3568 47.8918 -173.5287 0.4798 -10.8744 -22.9361 -142.5310 30.3171 -73.6535 14.7238 -7.3038 -111.9841 -0.2476 -0.7712 -1.3119 -1.0321 7.9282 23.3784 -49.9158 -31.8150 159.5178 2.7748 1.1112 106.9867 -0.0582 -0.0359 -0.2811 -39.9244 17.7022 93.7256 -2.5688 35.8990 -10.3328 -4.4317 -1.5477 -0.4774 1.8525 -9.1560 7.6328 -55.5385 -14.2647 77.2704 -0.5379 33.6104 2.5439 -3.3298 -12.6458 0.7975 1.3851 -13.6079 -4.3840 
0.0000 93.1000 0.0000 -69.0193 -27.4331 -169.4041 -71.0451 -0.1057 88.0538 94.8872 74.9570 -3.7705 -1.2609 27.9883 -0.1357 -141.7004 11.9342 -165.5947 -154.7424 47.7230 -173.2802 0.6191 -10.7596 -22.9339 -141.9259 31.1270 -74.2783 14.9876 -7.4560 -110.3248 -0.0755 -0.9169 -1.0509 -1.0652 7.9428 23.4353 -50.2714 -31.9054 159.8451 2.5551 0.5841 107.6617 -0.1985 -0.2214 -0.0737 -39.9478 17.7914 93.9988 -3.2791 33.9517 -8.4038 -5.4594 -0.8489 -0.1085 0.8214 -6.9792 10.3469 -55.4706 -13.4065 76.3601 -0.2328 33.1435 2.0680 -2.8883 -13.7520 0.5880 1.3884 -12.2915 -6.4454 
